<?xml version="1.0" encoding="UTF-8" standalone="no"?>
<!-- Created with Inkscape (http://www.inkscape.org/) -->

<svg
   xmlns:dc="http://purl.org/dc/elements/1.1/"
   xmlns:cc="http://creativecommons.org/ns#"
   xmlns:rdf="http://www.w3.org/1999/02/22-rdf-syntax-ns#"
   xmlns:svg="http://www.w3.org/2000/svg"
   xmlns="http://www.w3.org/2000/svg"
   xmlns:sodipodi="http://sodipodi.sourceforge.net/DTD/sodipodi-0.dtd"
   xmlns:inkscape="http://www.inkscape.org/namespaces/inkscape"
   id="svg2"
   version="1.1"
   inkscape:version="0.91 r13725"
   xml:space="preserve"
   width="743.46924"
   height="110.57288"
   viewBox="0 0 743.46924 110.57287"
   sodipodi:docname="CLASP_Ordbild_orange.svg"><metadata
     id="metadata8"><rdf:RDF><cc:Work
         rdf:about=""><dc:format>image/svg+xml</dc:format><dc:type
           rdf:resource="http://purl.org/dc/dcmitype/StillImage" /><dc:title></dc:title></cc:Work></rdf:RDF></metadata><defs
     id="defs6"><clipPath
       clipPathUnits="userSpaceOnUse"
       id="clipPath18"><path
         d="m 0.09834711,376.0226 594.77540289,0 0,88.45831 -594.77540289,0 0,-88.45831 z"
         id="path20"
         inkscape:connector-curvature="0" /></clipPath><clipPath
       clipPathUnits="userSpaceOnUse"
       id="clipPath28"><path
         d="m 0,375.9242 595,0 0,90.15152 -595,0 0,-90.15152 z"
         id="path30"
         inkscape:connector-curvature="0" /></clipPath><clipPath
       clipPathUnits="userSpaceOnUse"
       id="clipPath116"><path
         d="m 0.09834711,376.0226 594.77540289,0 0,88.45831 -594.77540289,0 0,-88.45831 z"
         id="path118"
         inkscape:connector-curvature="0" /></clipPath><clipPath
       clipPathUnits="userSpaceOnUse"
       id="clipPath128"><path
         d="m 0,375.9242 595,0 0,90.15152 -595,0 0,-90.15152 z"
         id="path130"
         inkscape:connector-curvature="0" /></clipPath><clipPath
       clipPathUnits="userSpaceOnUse"
       id="clipPath152"><path
         d="m 0.09834711,376.0226 594.77540289,0 0,88.45831 -594.77540289,0 0,-88.45831 z"
         id="path154"
         inkscape:connector-curvature="0" /></clipPath></defs><sodipodi:namedview
     pagecolor="#ffffff"
     bordercolor="#666666"
     borderopacity="1"
     objecttolerance="10"
     gridtolerance="10"
     guidetolerance="10"
     inkscape:pageopacity="0"
     inkscape:pageshadow="2"
     inkscape:window-width="640"
     inkscape:window-height="480"
     id="namedview4"
     showgrid="false"
     fit-margin-top="0"
     fit-margin-left="0"
     fit-margin-right="0"
     fit-margin-bottom="0"
     inkscape:zoom="0.29254751"
     inkscape:cx="371.75207"
     inkscape:cy="56.221749"
     inkscape:window-x="0"
     inkscape:window-y="0"
     inkscape:window-maximized="0"
     inkscape:current-layer="g10" /><g
     id="g10"
     inkscape:groupmode="layer"
     inkscape:label="CLASP_Ordbild_orange"
     transform="matrix(1.25,0,0,-1.25,-0.12293389,580.60112)"><g
       id="g12" /><g
       id="g14"><g
         id="g16"
         clip-path="url(#clipPath18)"><path
           d="m 36.38187,435.4882 c 0,11.8246 -2.38819,16.9403 -9.77898,16.9403 -8.18576,0 -10.23137,-8.1858 -10.23137,-31.2646 0,-24.5589 3.411,-28.9927 10.45921,-28.9927 5.7992,0 10.23302,2.957 10.23302,20.5791 l 16.37151,0 c 0,-17.6221 -4.32071,-32.6283 -25.80956,-32.6283 C 3.070069,380.122 0,397.6278 0,422.2998 c 0,24.672 3.070069,42.1811 27.6257,42.1811 23.42301,0 25.12769,-17.1681 25.12769,-28.9927 l -16.37152,0"
           style="fill:#f68712;fill-opacity:1;fill-rule:nonzero;stroke:none"
           id="path22"
           inkscape:connector-curvature="0" /></g></g><g
       id="g24"><g
         id="g26"
         clip-path="url(#clipPath28)"><path
           d="m 62.76021,381.712 0,81.1773 16.37151,0 0,-67.7611 28.99108,0 0,-13.4162 -45.36259,0"
           style="fill:#f68712;fill-opacity:1;fill-rule:nonzero;stroke:none"
           id="path32"
           inkscape:connector-curvature="0" /><path
           d="m 133.3652,412.2963 15.9159,0 -7.8432,36.495 -0.2295,0 -7.8432,-36.495 z m -2.162,50.593 20.2382,0 21.4872,-81.1773 -17.0534,0 -3.7519,17.1665 -21.6019,0 -3.752,-17.1665 -17.0534,0 21.4872,81.1773"
           style="fill:#f68712;fill-opacity:1;fill-rule:nonzero;stroke:none"
           id="path34"
           inkscape:connector-curvature="0" /><path
           d="m 191.8047,407.0659 0,-2.3882 c 0,-7.6154 2.1604,-12.5065 10.8018,-12.5065 5.0026,0 9.7774,3.1832 9.7774,10.0052 0,7.276 -3.6372,10.233 -14.5521,13.8718 -14.5538,4.8879 -21.261,11.1411 -21.261,24.5573 0,15.9158 9.5495,23.8754 25.126,23.8754 14.5521,0 25.1261,-6.2532 25.1261,-21.8298 l 0,-2.2734 -15.6897,0 c 0,7.7317 -2.5013,12.0508 -8.8676,12.0508 -7.3908,0 -9.3233,-4.547 -9.3233,-9.4364 0,-5.0026 1.4785,-8.1858 8.4136,-11.028 l 12.6195,-5.4567 c 12.2787,-5.4582 15.4635,-11.4836 15.4635,-21.4888 0,-17.1681 -10.4609,-24.8966 -28.1978,-24.8966 -18.5318,0 -25.8079,8.6382 -25.8079,23.6459 l 0,3.298 16.3715,0"
           style="fill:#f68712;fill-opacity:1;fill-rule:nonzero;stroke:none"
           id="path36"
           inkscape:connector-curvature="0" /><path
           d="m 253.9978,426.1649 7.2777,0 c 6.4811,0 10.9149,3.8666 10.9149,12.1671 0,8.0711 -3.1848,12.5049 -11.3706,12.5049 l -6.822,0 0,-24.672 z m -16.3715,36.7244 28.6501,0 c 16.7141,0 22.2855,-12.1655 22.2855,-24.3311 0,-16.8272 -10.3478,-24.4441 -25.8096,-24.4441 l -8.7545,0 0,-32.4021 -16.3715,0 0,81.1773"
           style="fill:#f68712;fill-opacity:1;fill-rule:nonzero;stroke:none"
           id="path38"
           inkscape:connector-curvature="0" /><path
           d="m 323.1883,454.8199 c -0.4508,2.044 -1.6719,3.293 -3.8766,3.293 -3.1848,0 -4.8042,-2.9471 -4.8042,-5.8385 0,-2.8947 1.6194,-5.8418 4.8042,-5.8418 2.0457,0 3.77,1.6456 3.9831,3.9043 l 1.6719,0 c -0.4507,-3.3192 -2.575,-5.3107 -5.655,-5.3107 -4.1666,0 -6.4761,3.3192 -6.4761,7.2482 0,3.9273 2.3095,7.2449 6.4761,7.2449 2.9455,0 5.1502,-1.5391 5.5485,-4.6994 l -1.6719,0"
           style="fill:#231f20;fill-opacity:1;fill-rule:nonzero;stroke:none"
           id="path40"
           inkscape:connector-curvature="0" /><path
           d="m 337.1421,453.2283 c -0.0787,2.521 -1.6703,4.8846 -4.3519,4.8846 -2.7619,0 -4.2207,-2.3882 -4.5125,-4.8846 l 8.8644,0 z m -8.8644,-1.4063 c 0,-2.4423 1.3261,-5.3894 4.5125,-5.3894 2.4423,0 3.77,1.408 4.2994,3.5028 l 1.6719,0 c -0.7163,-3.1045 -2.4947,-4.9092 -5.9713,-4.9092 -4.3518,0 -6.186,3.3438 -6.186,7.2482 0,3.6093 1.8342,7.2449 6.186,7.2449 4.3797,0 6.1582,-3.8487 6.0254,-7.6973 l -10.5379,0"
           style="fill:#231f20;fill-opacity:1;fill-rule:nonzero;stroke:none"
           id="path42"
           inkscape:connector-curvature="0" /><path
           d="m 341.0383,459.121 1.6702,0 0,-2.362 0.0541,0 c 0.636,1.6457 2.4423,2.7603 4.3814,2.7603 3.8454,0 5.0157,-2.0161 5.0157,-5.2829 l 0,-8.8119 -1.6719,0 0,8.5464 c 0,2.3374 -0.7704,4.142 -3.4782,4.142 -2.6816,0 -4.2224,-2.0177 -4.3011,-4.6993 l 0,-7.9891 -1.6702,0 0,13.6965"
           style="fill:#231f20;fill-opacity:1;fill-rule:nonzero;stroke:none"
           id="path44"
           inkscape:connector-curvature="0" /><path
           d="m 357.9638,459.121 2.7865,0 0,-1.408 -2.7865,0 0,-9.2348 c 0,-1.09 0.1606,-1.726 1.3523,-1.8063 0.4786,0 0.9572,0.0278 1.4342,0.0803 l 0,-1.4326 c -0.5032,0 -0.9802,-0.0541 -1.485,-0.0541 -2.2292,0 -2.9996,0.7442 -2.9734,3.0799 l 0,9.3676 -2.3882,0 0,1.408 2.3882,0 0,4.1142 1.6719,0 0,-4.1142"
           style="fill:#231f20;fill-opacity:1;fill-rule:nonzero;stroke:none"
           id="path46"
           inkscape:connector-curvature="0" /><path
           d="m 363.1614,459.121 1.5392,0 0,-3.2111 0.0541,0 c 0.849,2.2292 2.7062,3.5028 5.1763,3.3979 l 0,-1.6735 c -3.0274,0.1344 -5.096,-2.044 -5.096,-4.9092 l 0,-7.3006 -1.6736,0 0,13.6965"
           style="fill:#231f20;fill-opacity:1;fill-rule:nonzero;stroke:none"
           id="path48"
           inkscape:connector-curvature="0" /><path
           d="m 380.8902,453.2283 c -0.0804,2.521 -1.6736,4.8846 -4.3535,4.8846 -2.7603,0 -4.2208,-2.3882 -4.5142,-4.8846 l 8.8677,0 z m -8.8677,-1.4063 c 0,-2.4423 1.3277,-5.3894 4.5142,-5.3894 2.4406,0 3.7683,1.408 4.2977,3.5028 l 1.6752,0 c -0.7179,-3.1045 -2.4964,-4.9092 -5.9729,-4.9092 -4.3535,0 -6.1861,3.3438 -6.1861,7.2482 0,3.6093 1.8326,7.2449 6.1861,7.2449 4.378,0 6.1565,-3.8487 6.0254,-7.6973 l -10.5396,0"
           style="fill:#231f20;fill-opacity:1;fill-rule:nonzero;stroke:none"
           id="path50"
           inkscape:connector-curvature="0" /><path
           d="m 397.4682,457.713 -2.7078,0 0,-12.2885 -1.6719,0 0,12.2885 -2.3358,0 0,1.408 2.3358,0 0,1.2473 c 0,2.3637 0.6097,4.0093 3.3175,4.0093 0.5049,0 0.8753,-0.0278 1.4064,-0.1065 l 0,-1.4342 c -0.4524,0.0803 -0.8212,0.1327 -1.2211,0.1327 -1.8309,0 -1.8309,-1.1933 -1.8309,-2.6537 l 0,-1.1949 2.7078,0 0,-1.408"
           style="fill:#231f20;fill-opacity:1;fill-rule:nonzero;stroke:none"
           id="path52"
           inkscape:connector-curvature="0" /><path
           d="m 400.0383,452.2744 c 0,-2.8947 1.6195,-5.8418 4.8043,-5.8418 3.1848,0 4.8042,2.9471 4.8042,5.8418 0,2.8914 -1.6194,5.8385 -4.8042,5.8385 -3.1848,0 -4.8043,-2.9471 -4.8043,-5.8385 z m 11.2821,0 c 0,-3.929 -2.3095,-7.2482 -6.4778,-7.2482 -4.1666,0 -6.4762,3.3192 -6.4762,7.2482 0,3.9273 2.3096,7.2449 6.4762,7.2449 4.1683,0 6.4778,-3.3176 6.4778,-7.2449"
           style="fill:#231f20;fill-opacity:1;fill-rule:nonzero;stroke:none"
           id="path54"
           inkscape:connector-curvature="0" /><path
           d="m 413.8069,459.121 1.5392,0 0,-3.2111 0.0541,0 c 0.849,2.2292 2.7078,3.5028 5.1746,3.3979 l 0,-1.6735 c -3.0258,0.1344 -5.0943,-2.044 -5.0943,-4.9092 l 0,-7.3006 -1.6736,0 0,13.6965"
           style="fill:#231f20;fill-opacity:1;fill-rule:nonzero;stroke:none"
           id="path56"
           inkscape:connector-curvature="0" /><path
           d="m 313.5535,413.2093 1.67026,0 0,18.95313 -1.67026,0 0,-18.95313 z"
           style="fill:#231f20;fill-opacity:1;fill-rule:nonzero;stroke:none"
           id="path58"
           inkscape:connector-curvature="0" /><path
           d="m 318.461,426.9057 1.6703,0 0,-13.6964 -1.6703,0 0,13.6964 z m 0,5.2567 1.6703,0 0,-2.68 -1.6703,0 0,2.68 z"
           style="fill:#231f20;fill-opacity:1;fill-rule:nonzero;stroke:none"
           id="path60"
           inkscape:connector-curvature="0" /><path
           d="m 323.3145,426.9057 1.6735,0 0,-2.3603 0.0508,0 c 0.6393,1.6457 2.444,2.7603 4.3814,2.7603 3.8486,0 5.0173,-2.0194 5.0173,-5.2829 l 0,-8.8135 -1.6735,0 0,8.548 c 0,2.3357 -0.7704,4.1404 -3.4766,4.1404 -2.6799,0 -4.2207,-2.0178 -4.2994,-4.6977 l 0,-7.9907 -1.6735,0 0,13.6964"
           style="fill:#231f20;fill-opacity:1;fill-rule:nonzero;stroke:none"
           id="path62"
           inkscape:connector-curvature="0" /><path
           d="m 347.4898,420.2181 c 0,2.68 -1.2227,5.6796 -4.4076,5.6796 -3.1848,0 -4.5108,-2.839 -4.5108,-5.6796 0,-2.7619 1.4064,-5.4418 4.5108,-5.4418 2.8947,0 4.4076,2.6799 4.4076,5.4418 z m 1.6719,-5.8942 c 0,-4.1126 -1.6473,-6.5811 -6.0795,-6.5811 -2.7324,0 -5.4681,1.2474 -5.6811,4.1404 l 1.6735,0 c 0.3459,-2.0161 2.1751,-2.734 4.0076,-2.734 3.1062,0 4.4076,1.8063 4.4076,5.1747 l 0,1.8604 -0.0557,0 c -0.7687,-1.6998 -2.3603,-2.816 -4.3519,-2.816 -4.3797,0 -6.1843,3.1061 -6.1843,7.0351 0,3.7699 2.2292,6.9023 6.1843,6.9023 2.0178,0 3.6897,-1.249 4.3519,-2.7603 l 0.0557,0 0,2.3603 1.6719,0 0,-12.5818"
           style="fill:#231f20;fill-opacity:1;fill-rule:nonzero;stroke:none"
           id="path64"
           inkscape:connector-curvature="0" /><path
           d="m 363.4352,413.2093 -1.5392,0 0,2.4701 -0.0557,0 c -0.8736,-1.8342 -2.6799,-2.8668 -4.7223,-2.8668 -3.4782,0 -4.8042,1.9915 -4.8042,5.2009 l 0,8.8922 1.6702,0 0,-8.9168 c 0.0787,-2.4701 1.0097,-3.7699 3.6651,-3.7699 2.8652,0 4.1142,2.7078 4.1142,5.4943 l 0,7.1924 1.6719,0 0,-13.6964"
           style="fill:#231f20;fill-opacity:1;fill-rule:nonzero;stroke:none"
           id="path66"
           inkscape:connector-curvature="0" /><path
           d="m 366.6118,426.9057 1.6719,0 0,-13.6964 -1.6719,0 0,13.6964 z m 0,5.2567 1.6719,0 0,-2.68 -1.6719,0 0,2.68 z"
           style="fill:#231f20;fill-opacity:1;fill-rule:nonzero;stroke:none"
           id="path68"
           inkscape:connector-curvature="0" /><path
           d="m 379.6936,422.8981 c -0.0803,2.0702 -1.6719,2.9996 -3.5831,2.9996 -1.4883,0 -3.2373,-0.5835 -3.2373,-2.362 0,-1.4588 1.6703,-2.0161 2.839,-2.3095 l 2.2292,-0.5049 c 1.9128,-0.2917 3.9027,-1.4063 3.9027,-3.7945 0,-2.9734 -2.9455,-4.1142 -5.4943,-4.1142 -3.2127,0 -5.3353,1.4605 -5.6287,4.8305 l 1.6751,0 c 0.1312,-2.2571 1.8031,-3.4241 4.0339,-3.4241 1.5916,0 3.7405,0.69 3.7405,2.6012 0,1.5916 -1.4851,2.1227 -2.9996,2.4948 l -2.1489,0.477 c -2.1784,0.5573 -3.8224,1.3555 -3.8224,3.665 0,2.7865 2.734,3.8487 5.1501,3.8487 2.7619,0 4.8829,-1.4342 5.0173,-4.4076 l -1.6735,0"
           style="fill:#231f20;fill-opacity:1;fill-rule:nonzero;stroke:none"
           id="path70"
           inkscape:connector-curvature="0" /><path
           d="m 386.9074,426.9057 2.7881,0 0,-1.4063 -2.7881,0 0,-9.2365 c 0,-1.09 0.1589,-1.7259 1.3539,-1.8063 0.477,0 0.9556,0.0279 1.4342,0.0804 l 0,-1.431 c -0.5065,0 -0.9835,-0.0557 -1.4883,-0.0557 -2.2292,0 -2.9996,0.7441 -2.9734,3.0799 l 0,9.3692 -2.3882,0 0,1.4063 2.3882,0 0,4.1159 1.6736,0 0,-4.1159"
           style="fill:#231f20;fill-opacity:1;fill-rule:nonzero;stroke:none"
           id="path72"
           inkscape:connector-curvature="0" /><path
           d="m 392.1312,426.9057 1.6719,0 0,-13.6964 -1.6719,0 0,13.6964 z m 0,5.2567 1.6719,0 0,-2.68 -1.6719,0 0,2.68 z"
           style="fill:#231f20;fill-opacity:1;fill-rule:nonzero;stroke:none"
           id="path74"
           inkscape:connector-curvature="0" /><path
           d="m 406.6751,422.6063 c -0.4507,2.044 -1.6735,3.2914 -3.8749,3.2914 -3.1864,0 -4.8042,-2.9455 -4.8042,-5.8386 0,-2.8946 1.6178,-5.8401 4.8042,-5.8401 2.0424,0 3.77,1.6456 3.9798,3.9027 l 1.6736,0 c -0.4508,-3.3176 -2.5734,-5.3091 -5.6534,-5.3091 -4.1666,0 -6.4761,3.3176 -6.4761,7.2465 0,3.929 2.3095,7.2466 6.4761,7.2466 2.9472,0 5.1485,-1.5391 5.5468,-4.6994 l -1.6719,0"
           style="fill:#231f20;fill-opacity:1;fill-rule:nonzero;stroke:none"
           id="path76"
           inkscape:connector-curvature="0" /><path
           d="m 420.8109,426.9057 2.7865,0 0,-1.4063 -2.7865,0 0,-9.2365 c 0,-1.09 0.1606,-1.7259 1.3539,-1.8063 0.4786,0 0.9556,0.0279 1.4326,0.0804 l 0,-1.431 c -0.5016,0 -0.9786,-0.0557 -1.4851,-0.0557 -2.2292,0 -2.9995,0.7441 -2.9733,3.0799 l 0,9.3692 -2.3882,0 0,1.4063 2.3882,0 0,4.1159 1.6719,0 0,-4.1159"
           style="fill:#231f20;fill-opacity:1;fill-rule:nonzero;stroke:none"
           id="path78"
           inkscape:connector-curvature="0" /><path
           d="m 425.9839,432.1624 1.6703,0 0,-7.617 0.0541,0 c 0.6376,1.6457 2.4423,2.7603 4.3797,2.7603 3.8487,0 5.0174,-2.0194 5.0174,-5.2829 l 0,-8.8135 -1.6736,0 0,8.548 c 0,2.3357 -0.7687,4.1404 -3.4766,4.1404 -2.6815,0 -4.2207,-2.0178 -4.301,-4.6977 l 0,-7.9907 -1.6703,0 0,18.9531"
           style="fill:#231f20;fill-opacity:1;fill-rule:nonzero;stroke:none"
           id="path80"
           inkscape:connector-curvature="0" /><path
           d="m 450.1036,421.0131 c -0.0803,2.5226 -1.6719,4.8846 -4.3519,4.8846 -2.7619,0 -4.2207,-2.3898 -4.5141,-4.8846 l 8.866,0 z m -8.866,-1.4064 c 0,-2.4422 1.326,-5.3877 4.5141,-5.3877 2.4407,0 3.7683,1.4063 4.2978,3.5028 l 1.6735,0 c -0.7163,-3.1062 -2.4947,-4.9092 -5.9713,-4.9092 -4.3535,0 -6.1877,3.3438 -6.1877,7.2465 0,3.6094 1.8342,7.2466 6.1877,7.2466 4.3781,0 6.1565,-3.8487 6.0254,-7.699 l -10.5395,0"
           style="fill:#231f20;fill-opacity:1;fill-rule:nonzero;stroke:none"
           id="path82"
           inkscape:connector-curvature="0" /><path
           d="m 455.0045,420.0591 c 0,-2.8946 1.6211,-5.8401 4.8059,-5.8401 3.1848,0 4.8059,2.9455 4.8059,5.8401 0,2.8931 -1.6211,5.8386 -4.8059,5.8386 -3.1848,0 -4.8059,-2.9455 -4.8059,-5.8386 z m 11.2821,0 c 0,-3.9289 -2.3095,-7.2465 -6.4762,-7.2465 -4.1683,0 -6.4778,3.3176 -6.4778,7.2465 0,3.929 2.3095,7.2466 6.4778,7.2466 4.1667,0 6.4762,-3.3176 6.4762,-7.2466"
           style="fill:#231f20;fill-opacity:1;fill-rule:nonzero;stroke:none"
           id="path84"
           inkscape:connector-curvature="0" /><path
           d="m 468.7748,426.9057 1.5391,0 0,-3.2094 0.0524,0 c 0.8508,2.2293 2.7095,3.5028 5.178,3.3963 l 0,-1.6719 c -3.0258,0.1328 -5.0976,-2.044 -5.0976,-4.9108 l 0,-7.3006 -1.6719,0 0,13.6964"
           style="fill:#231f20;fill-opacity:1;fill-rule:nonzero;stroke:none"
           id="path86"
           inkscape:connector-curvature="0" /><path
           d="m 475.5919,426.9057 1.7784,0 4.5109,-11.6787 4.2207,11.6787 1.6719,0 -5.9435,-15.7912 c -0.9834,-2.3095 -1.5145,-2.9767 -3.6126,-2.9767 -0.6638,0.0312 -0.9802,0.0312 -1.2736,0.1328 l 0,1.408 c 0.4,-0.0787 0.7442,-0.1295 1.1409,-0.1295 1.4899,0 1.8341,0.8737 2.3898,2.1456 l 0.5852,1.5703 -5.4681,13.6407"
           style="fill:#231f20;fill-opacity:1;fill-rule:nonzero;stroke:none"
           id="path88"
           inkscape:connector-curvature="0" /><path
           d="m 322.2867,388.4815 -0.054,0 c -0.2131,-0.3983 -0.9556,-0.5327 -1.4064,-0.6097 -2.8406,-0.5032 -6.3713,-0.5032 -6.3713,-3.1619 0,-1.6719 1.4589,-2.7045 3.0537,-2.7045 2.5734,0 4.778,1.6161 4.778,4.301 l 0,2.1751 z m -8.92,2.0178 c 0.1868,3.2127 2.3882,4.5928 5.5467,4.5928 2.4161,0 5.0436,-0.7179 5.0436,-4.4076 l 0,-7.2728 c 0,-0.6622 0.3196,-1.0113 0.9835,-1.0113 0.1852,0 0.3458,0.0311 0.5294,0.1082 l 0,-1.4064 c -0.3966,-0.0819 -0.636,-0.1065 -1.0867,-0.1065 -1.6998,0 -1.9637,0.9834 -1.9637,2.3898 l -0.0541,0 c -1.1949,-1.7801 -2.3357,-2.7865 -4.9911,-2.7865 -2.5488,0 -4.5912,1.2474 -4.5912,4.0077 0,3.8207 3.7421,3.9797 7.3531,4.4043 1.3802,0.1344 2.1505,0.3737 2.1505,1.8587 0,2.2571 -1.5948,2.8128 -3.5847,2.8128 -2.0981,0 -3.5831,-0.9557 -3.6634,-3.1832 l -1.6719,0"
           style="fill:#231f20;fill-opacity:1;fill-rule:nonzero;stroke:none"
           id="path90"
           inkscape:connector-curvature="0" /><path
           d="m 327.2697,394.6921 1.6702,0 0,-2.3603 0.0541,0 c 0.6376,1.6424 2.4439,2.7603 4.3797,2.7603 3.8471,0 5.0174,-2.021 5.0174,-5.2845 l 0,-8.8119 -1.6736,0 0,8.5496 c 0,2.3341 -0.7687,4.1372 -3.4765,4.1372 -2.6816,0 -4.2208,-2.0162 -4.3011,-4.6961 l 0,-7.9907 -1.6702,0 0,13.6964"
           style="fill:#231f20;fill-opacity:1;fill-rule:nonzero;stroke:none"
           id="path92"
           inkscape:connector-curvature="0" /><path
           d="m 347.1145,382.0054 c 3.5306,0 4.8042,2.9979 4.8042,5.8418 0,2.8373 -1.2736,5.8353 -4.8042,5.8353 -3.1832,0 -4.4847,-2.998 -4.4847,-5.8353 0,-2.8439 1.3015,-5.8418 4.4847,-5.8418 z m 6.4761,-1.0097 -1.5375,0 0,2.6013 -0.0541,0 c -0.7162,-1.8064 -2.893,-2.998 -4.8845,-2.998 -4.1667,0 -6.1582,3.3422 -6.1582,7.2482 0,3.8995 1.9915,7.2449 6.1582,7.2449 2.0177,0 4.0634,-1.0359 4.7518,-3.0012 l 0.0524,0 0,7.8563 1.6719,0 0,-18.9515"
           style="fill:#231f20;fill-opacity:1;fill-rule:nonzero;stroke:none"
           id="path94"
           inkscape:connector-curvature="0" /><path
           d="m 372.3454,390.6845 c -0.0787,2.0686 -1.6735,2.998 -3.5831,2.998 -1.4867,0 -3.2389,-0.5819 -3.2389,-2.3604 0,-1.4588 1.6719,-2.0177 2.8422,-2.3111 l 2.226,-0.5032 c 1.9128,-0.2918 3.9044,-1.4064 3.9044,-3.7979 0,-2.9717 -2.9472,-4.1109 -5.4944,-4.1109 -3.2126,0 -5.3353,1.4572 -5.6271,4.8305 l 1.6719,0 c 0.1328,-2.2587 1.8047,-3.4241 4.0339,-3.4241 1.5916,0 3.7437,0.6884 3.7437,2.6013 0,1.5932 -1.4883,2.121 -2.9995,2.4947 l -2.1506,0.477 c -2.1767,0.5556 -3.8224,1.3555 -3.8224,3.665 0,2.7865 2.7357,3.8487 5.1501,3.8487 2.7603,0 4.883,-1.4359 5.0157,-4.4076 l -1.6719,0"
           style="fill:#231f20;fill-opacity:1;fill-rule:nonzero;stroke:none"
           id="path96"
           inkscape:connector-curvature="0" /><path
           d="m 379.5592,394.6921 2.7865,0 0,-1.4063 -2.7865,0 0,-9.2381 c 0,-1.0884 0.159,-1.7243 1.3523,-1.8063 0.4769,0 0.9572,0.0295 1.4342,0.082 l 0,-1.4326 c -0.5049,0 -0.9818,-0.0558 -1.4867,-0.0558 -2.2292,0 -2.9996,0.7442 -2.9734,3.0799 l 0,9.3709 -2.3898,0 0,1.4063 2.3898,0 0,4.1159 1.6736,0 0,-4.1159"
           style="fill:#231f20;fill-opacity:1;fill-rule:nonzero;stroke:none"
           id="path98"
           inkscape:connector-curvature="0" /><path
           d="m 395.852,380.9957 -1.5391,0 0,2.4685 -0.0525,0 c -0.8752,-1.8325 -2.6816,-2.8652 -4.7255,-2.8652 -3.4766,0 -4.8043,1.9915 -4.8043,5.1993 l 0,8.8938 1.6719,0 0,-8.9184 c 0.0803,-2.4701 1.0081,-3.7683 3.6634,-3.7683 2.8669,0 4.1142,2.7045 4.1142,5.4927 l 0,7.194 1.6719,0 0,-13.6964"
           style="fill:#231f20;fill-opacity:1;fill-rule:nonzero;stroke:none"
           id="path100"
           inkscape:connector-curvature="0" /><path
           d="m 404.5771,382.0054 c 3.5306,0 4.8026,2.9979 4.8026,5.8418 0,2.8373 -1.272,5.8353 -4.8026,5.8353 -3.1865,0 -4.4863,-2.998 -4.4863,-5.8353 0,-2.8439 1.2998,-5.8418 4.4863,-5.8418 z m 6.4761,-1.0097 -1.5408,0 0,2.6013 -0.0524,0 c -0.7163,-1.8064 -2.8914,-2.998 -4.8829,-2.998 -4.1683,0 -6.1599,3.3422 -6.1599,7.2482 0,3.8995 1.9916,7.2449 6.1599,7.2449 2.0161,0 4.0617,-1.0359 4.7518,-3.0012 l 0.0508,0 0,7.8563 1.6735,0 0,-18.9515"
           style="fill:#231f20;fill-opacity:1;fill-rule:nonzero;stroke:none"
           id="path102"
           inkscape:connector-curvature="0" /><path
           d="m 414.256,394.6921 1.6719,0 0,-13.6964 -1.6719,0 0,13.6964 z m 0,5.2551 1.6719,0 0,-2.68 -1.6719,0 0,2.68 z"
           style="fill:#231f20;fill-opacity:1;fill-rule:nonzero;stroke:none"
           id="path104"
           inkscape:connector-curvature="0" /><path
           d="m 428.9852,388.8012 c -0.0804,2.5209 -1.6703,4.8813 -4.3519,4.8813 -2.7619,0 -4.2207,-2.3882 -4.5125,-4.8813 l 8.8644,0 z m -8.8644,-1.408 c 0,-2.4423 1.3277,-5.3878 4.5125,-5.3878 2.4423,0 3.77,1.4063 4.2994,3.5011 l 1.6719,0 c -0.7163,-3.1061 -2.4947,-4.9075 -5.9713,-4.9075 -4.3535,0 -6.1844,3.3422 -6.1844,7.2482 0,3.6077 1.8309,7.2449 6.1844,7.2449 4.3797,0 6.1582,-3.8487 6.0254,-7.6989 l -10.5379,0"
           style="fill:#231f20;fill-opacity:1;fill-rule:nonzero;stroke:none"
           id="path106"
           inkscape:connector-curvature="0" /><path
           d="m 441.1097,390.6845 c -0.0787,2.0686 -1.6735,2.998 -3.5847,2.998 -1.4851,0 -3.2373,-0.5819 -3.2373,-2.3604 0,-1.4588 1.6719,-2.0177 2.8406,-2.3111 l 2.2292,-0.5032 c 1.9112,-0.2918 3.9011,-1.4064 3.9011,-3.7979 0,-2.9717 -2.9471,-4.1109 -5.4943,-4.1109 -3.211,0 -5.3353,1.4572 -5.6271,4.8305 l 1.6735,0 c 0.1328,-2.2587 1.8031,-3.4241 4.0339,-3.4241 1.5916,0 3.7437,0.6884 3.7437,2.6013 0,1.5932 -1.4866,2.121 -2.9995,2.4947 l -2.1522,0.477 c -2.1751,0.5556 -3.8208,1.3555 -3.8208,3.665 0,2.7865 2.7324,3.8487 5.1485,3.8487 2.7603,0 4.8846,-1.4359 5.0157,-4.4076 l -1.6703,0"
           style="fill:#231f20;fill-opacity:1;fill-rule:nonzero;stroke:none"
           id="path108"
           inkscape:connector-curvature="0" /><path
           d="m 453.0704,394.6921 1.6702,0 0,-13.6964 -1.6702,0 0,13.6964 z m 0,5.2551 1.6702,0 0,-2.68 -1.6702,0 0,2.68 z"
           style="fill:#231f20;fill-opacity:1;fill-rule:nonzero;stroke:none"
           id="path110"
           inkscape:connector-curvature="0" /></g></g><g
       id="g112"><g
         id="g114"
         clip-path="url(#clipPath116)"><path
           d="m 457.9254,394.6921 1.6719,0 0,-2.3603 0.0509,0 c 0.6392,1.6424 2.4439,2.7603 4.3813,2.7603 3.8487,0 5.0174,-2.021 5.0174,-5.2845 l 0,-8.8119 -1.6736,0 0,8.5496 c 0,2.3341 -0.7704,4.1372 -3.4782,4.1372 -2.6799,0 -4.2191,-2.0162 -4.2978,-4.6961 l 0,-7.9907 -1.6719,0 0,13.6964"
           style="fill:#231f20;fill-opacity:1;fill-rule:nonzero;stroke:none"
           id="path120"
           inkscape:connector-curvature="0" /><path
           d="m 486.0494,393.6825 c -3.7175,0 -4.8042,-2.7325 -4.8042,-5.8353 0,-2.8439 1.2719,-5.8418 4.8042,-5.8418 3.1848,0 4.4847,2.9979 4.4847,5.8418 0,2.8373 -1.2999,5.8353 -4.4847,5.8353 z m -6.4761,1.0096 1.5375,0 0,-2.6012 0.0541,0 c 0.7687,1.8833 2.6537,3.0012 4.8845,3.0012 4.1667,0 6.1582,-3.3454 6.1582,-7.2449 0,-3.906 -1.9915,-7.2482 -6.1582,-7.2482 -2.0177,0 -4.0338,1.0064 -4.7534,2.998 l -0.0508,0 0,-7.6728 -1.6719,0 0,18.7679"
           style="fill:#231f20;fill-opacity:1;fill-rule:nonzero;stroke:none"
           id="path122"
           inkscape:connector-curvature="0" /></g></g><g
       id="g124"><g
         id="g126"
         clip-path="url(#clipPath128)"><path
           d="m 494.799,394.6921 1.5392,0 0,-3.2126 0.0524,0 c 0.8507,2.2325 2.7095,3.5061 5.178,3.3979 l 0,-1.6719 c -3.0258,0.1327 -5.0976,-2.044 -5.0976,-4.9076 l 0,-7.3022 -1.672,0 0,13.6964"
           style="fill:#231f20;fill-opacity:1;fill-rule:nonzero;stroke:none"
           id="path132"
           inkscape:connector-curvature="0" /><path
           d="m 503.6601,387.8472 c 0,-2.8963 1.6195,-5.8418 4.8059,-5.8418 3.1848,0 4.8043,2.9455 4.8043,5.8418 0,2.8881 -1.6195,5.8353 -4.8043,5.8353 -3.1864,0 -4.8059,-2.9472 -4.8059,-5.8353 z m 11.2821,0 c 0,-3.9323 -2.3095,-7.2482 -6.4762,-7.2482 -4.1683,0 -6.4794,3.3159 -6.4794,7.2482 0,3.9257 2.3111,7.2449 6.4794,7.2449 4.1667,0 6.4762,-3.3192 6.4762,-7.2449"
           style="fill:#231f20;fill-opacity:1;fill-rule:nonzero;stroke:none"
           id="path134"
           inkscape:connector-curvature="0" /><path
           d="m 523.9049,393.6825 c -3.529,0 -4.8026,-2.998 -4.8026,-5.8353 0,-2.8439 1.2736,-5.8418 4.8026,-5.8418 3.1881,0 4.4862,2.9979 4.4862,5.8418 0,2.8373 -1.2981,5.8353 -4.4862,5.8353 z m -6.4762,6.2647 1.6736,0 0,-7.8563 0.0524,0 c 0.6917,1.9653 2.7341,3.0012 4.7502,3.0012 4.1683,0 6.1581,-3.3454 6.1581,-7.2449 0,-3.906 -1.9898,-7.2482 -6.1581,-7.2482 -2.2292,0 -4.1126,1.113 -4.883,2.998 l -0.0524,0 0,-2.6013 -1.5408,0 0,18.9515"
           style="fill:#231f20;fill-opacity:1;fill-rule:nonzero;stroke:none"
           id="path136"
           inkscape:connector-curvature="0" /><path
           d="m 541.4156,388.4815 -0.0508,0 c -0.2131,-0.3983 -0.9573,-0.5327 -1.4097,-0.6097 -2.8389,-0.5032 -6.3696,-0.5032 -6.3696,-3.1619 0,-1.6719 1.4605,-2.7045 3.052,-2.7045 2.5751,0 4.7781,1.6161 4.7781,4.301 l 0,2.1751 z m -8.9168,2.0178 c 0.1836,3.2127 2.3882,4.5928 5.5468,4.5928 2.4144,0 5.0435,-0.7179 5.0435,-4.4076 l 0,-7.2728 c 0,-0.6622 0.318,-1.0113 0.9819,-1.0113 0.1852,0 0.3442,0.0311 0.531,0.1082 l 0,-1.4064 c -0.3999,-0.0819 -0.6376,-0.1065 -1.09,-0.1065 -1.6998,0 -1.9637,0.9834 -1.9637,2.3898 l -0.0524,0 c -1.1949,-1.7801 -2.3357,-2.7865 -4.9895,-2.7865 -2.5488,0 -4.5944,1.2474 -4.5944,4.0077 0,3.8207 3.7437,3.9797 7.3547,4.4043 1.3785,0.1344 2.1489,0.3737 2.1489,1.8587 0,2.2571 -1.5916,2.8128 -3.5815,2.8128 -2.0981,0 -3.5847,-0.9557 -3.6651,-3.1832 l -1.6702,0"
           style="fill:#231f20;fill-opacity:1;fill-rule:nonzero;stroke:none"
           id="path138"
           inkscape:connector-curvature="0" /><path
           d="m 552.9025,393.6825 c -3.529,0 -4.8042,-2.998 -4.8042,-5.8353 0,-2.8439 1.2752,-5.8418 4.8042,-5.8418 3.1865,0 4.4846,2.9979 4.4846,5.8418 0,2.8373 -1.2981,5.8353 -4.4846,5.8353 z m -6.4778,6.2647 1.6736,0 0,-7.8563 0.0524,0 c 0.6901,1.9653 2.7341,3.0012 4.7518,3.0012 4.1667,0 6.1582,-3.3454 6.1582,-7.2449 0,-3.906 -1.9915,-7.2482 -6.1582,-7.2482 -2.2292,0 -4.1142,1.113 -4.8846,2.998 l -0.054,0 0,-2.6013 -1.5392,0 0,18.9515"
           style="fill:#231f20;fill-opacity:1;fill-rule:nonzero;stroke:none"
           id="path140"
           inkscape:connector-curvature="0" /><path
           d="m 561.6784,394.6921 1.6735,0 0,-13.6964 -1.6735,0 0,13.6964 z m 0,5.2551 1.6735,0 0,-2.68 -1.6735,0 0,2.68 z"
           style="fill:#231f20;fill-opacity:1;fill-rule:nonzero;stroke:none"
           id="path142"
           inkscape:connector-curvature="0" /><path
           d="m 566.5875,380.9957 1.6719,0 0,18.95149 -1.6719,0 0,-18.95149 z"
           style="fill:#231f20;fill-opacity:1;fill-rule:nonzero;stroke:none"
           id="path144"
           inkscape:connector-curvature="0" /><path
           d="m 571.4967,394.6921 1.6702,0 0,-13.6964 -1.6702,0 0,13.6964 z m 0,5.2551 1.6702,0 0,-2.68 -1.6702,0 0,2.68 z"
           style="fill:#231f20;fill-opacity:1;fill-rule:nonzero;stroke:none"
           id="path146"
           inkscape:connector-curvature="0" /></g></g><g
       id="g148"><g
         id="g150"
         clip-path="url(#clipPath152)"><path
           d="m 579.0317,394.6921 2.7865,0 0,-1.4063 -2.7865,0 0,-9.2381 c 0,-1.0884 0.159,-1.7243 1.3523,-1.8063 0.4786,0 0.9572,0.0295 1.4342,0.082 l 0,-1.4326 c -0.5048,0 -0.9818,-0.0558 -1.4867,-0.0558 -2.2292,0 -2.9996,0.7442 -2.9717,3.0799 l 0,9.3709 -2.3898,0 0,1.4063 2.3898,0 0,4.1159 1.6719,0 0,-4.1159"
           style="fill:#231f20;fill-opacity:1;fill-rule:nonzero;stroke:none"
           id="path156"
           inkscape:connector-curvature="0" /><path
           d="m 582.6902,394.6921 1.7785,0 4.5125,-11.6803 4.2207,11.6803 1.6719,0 -5.9451,-15.7912 c -0.9818,-2.3112 -1.5129,-2.9767 -3.611,-2.9767 -0.6638,0.0295 -0.9818,0.0295 -1.2752,0.1328 l 0,1.408 c 0.3999,-0.0787 0.7442,-0.1311 1.1425,-0.1311 1.4866,0 1.8309,0.8753 2.3882,2.1472 l 0.5868,1.5687 -5.4698,13.6423"
           style="fill:#231f20;fill-opacity:1;fill-rule:nonzero;stroke:none"
           id="path158"
           inkscape:connector-curvature="0" /></g></g></g></svg>